<?xml version="1.0" standalone="no"?>
<!DOCTYPE svg PUBLIC "-//W3C//DTD SVG 20010904//EN"
 "http://www.w3.org/TR/2001/REC-SVG-20010904/DTD/svg10.dtd">
<svg version="1.0" xmlns="http://www.w3.org/2000/svg"
 width="260.000000pt" height="260.000000pt" viewBox="0 0 260.000000 260.000000"
 preserveAspectRatio="xMidYMid meet">
<metadata>
Created by potrace 1.14, written by Peter Selinger 2001-2017
</metadata>
<g transform="translate(0.000000,260.000000) scale(0.100000,-0.100000)"
fill="#000000" stroke="none">
<path d="M116 2305 c-3 -9 -11 -13 -16 -10 -6 4 -9 2 -8 -3 4 -10 -74 -88 -84
-84 -5 1 -8 -338 -8 -753 0 -644 2 -755 14 -762 8 -4 16 -21 18 -36 2 -15 8
-28 14 -29 5 0 15 -9 22 -20 7 -10 19 -15 25 -12 7 4 9 4 5 -1 -4 -4 -2 -17 3
-28 9 -16 13 -17 20 -6 7 12 9 12 9 0 0 -11 3 -11 15 -1 12 10 15 10 15 0 0
-10 3 -10 15 0 12 10 15 10 15 -1 0 -12 2 -12 9 0 6 9 11 10 15 2 5 -8 13 -8
27 -1 14 8 19 7 19 -1 0 -9 3 -9 14 0 10 8 16 9 21 1 4 -7 12 -7 25 0 13 7 21
7 25 0 5 -8 11 -7 21 1 11 9 14 9 14 0 0 -8 5 -9 19 -1 14 7 22 7 26 0 5 -8
11 -7 21 1 11 9 14 9 14 -1 0 -10 3 -10 15 0 11 9 15 9 15 1 0 -9 5 -9 20 -1
11 6 20 7 20 3 0 -4 11 -8 25 -8 14 0 25 3 25 6 0 9 44 5 52 -5 4 -6 13 -4 22
3 13 11 16 11 16 0 0 -12 2 -12 9 0 6 9 11 10 15 2 5 -8 13 -8 27 -1 14 8 19
7 19 -1 0 -9 3 -9 14 0 10 8 16 9 21 1 4 -7 12 -7 25 0 13 7 21 7 25 0 5 -8
11 -7 21 1 11 9 14 9 14 0 0 -8 5 -9 19 -1 14 7 22 7 26 0 5 -8 11 -7 21 1 11
9 14 9 14 -1 0 -10 3 -10 15 0 11 9 15 9 15 1 0 -9 5 -9 20 -1 11 6 20 7 20 3
0 -4 11 -8 25 -8 14 0 25 2 25 5 0 3 11 5 25 5 14 0 25 -4 25 -10 0 -5 5 -3
10 5 7 11 10 11 10 2 0 -7 5 -10 10 -7 6 3 10 -2 11 -12 4 -71 3 -103 -4 -103
-5 0 -5 -5 -2 -10 7 -12 -23 -9 -44 4 -8 5 -12 5 -8 0 3 -5 -77 -9 -194 -8
-190 1 -219 -2 -222 -22 -1 -5 -5 -8 -9 -7 -3 1 -9 -4 -12 -12 -3 -8 -1 -15 5
-15 6 0 7 -5 3 -12 -9 -14 -12 -58 -4 -59 48 -7 108 -4 103 5 -3 6 0 6 7 -1 9
-9 19 -9 33 -2 11 7 17 7 13 1 -3 -6 12 -9 39 -8 25 0 45 5 45 11 0 7 3 7 8 0
4 -5 21 -10 37 -10 17 0 33 5 37 10 5 6 8 6 8 -1 0 -13 58 -13 79 0 9 6 12 5
7 -2 -8 -14 56 -11 66 3 5 6 8 6 8 -1 0 -13 58 -13 79 0 10 6 12 5 7 -3 -8
-12 33 -9 55 5 7 4 9 3 6 -3 -4 -7 10 -10 38 -9 25 0 45 5 45 11 0 7 3 7 8 0
10 -14 103 -16 95 -1 -4 7 -1 6 7 -1 9 -9 19 -9 33 -2 11 7 17 7 13 1 -3 -6
12 -9 39 -8 25 0 45 5 45 11 0 7 3 7 8 0 10 -14 104 -16 95 -2 -4 6 -1 7 7 2
15 -9 110 -14 106 -5 -2 3 5 13 16 23 17 16 18 16 19 0 1 -10 1 -21 0 -25 0
-4 10 -2 24 4 13 6 22 14 20 19 -8 12 10 19 25 9 18 -11 41 6 33 26 -3 8 -1
20 5 27 8 9 5 19 -8 37 -11 14 -20 19 -20 13 0 -19 -17 -16 -42 10 -13 12 -22
21 -21 19 1 -2 -5 -11 -13 -20 -12 -15 -36 -17 -182 -15 -92 1 -170 2 -173 2
-7 1 -9 121 -2 133 2 3 17 3 33 -2 19 -5 30 -5 30 1 0 6 8 5 20 -1 11 -6 20
-7 20 -2 0 11 43 10 52 -2 4 -6 12 -5 21 3 12 9 16 9 20 -1 4 -11 6 -10 6 0 1
8 6 10 13 6 16 -10 48 -13 48 -4 0 10 44 6 52 -5 5 -6 8 -5 8 4 0 9 4 10 13 4
14 -11 27 -11 45 0 7 5 12 3 12 -5 0 -9 3 -9 10 2 7 11 10 11 10 2 0 -10 5
-10 20 -2 11 6 20 7 20 3 0 -4 11 -8 25 -8 14 0 25 3 25 6 0 9 44 5 52 -5 4
-6 13 -4 22 3 13 11 16 11 16 0 0 -12 2 -12 9 0 6 9 11 10 15 2 5 -8 13 -8 27
-1 14 8 19 7 19 -1 0 -9 3 -9 14 0 10 8 16 9 21 1 4 -7 12 -7 25 0 13 7 21 7
25 0 5 -8 11 -7 21 1 11 9 14 9 14 0 0 -8 5 -9 19 -1 14 7 22 7 26 0 5 -8 11
-7 21 1 10 8 14 8 14 0 0 -7 8 -8 24 -1 17 6 26 5 28 -2 6 -17 102 79 103 104
1 12 10 27 19 34 13 9 16 19 11 36 -4 13 -4 20 0 16 4 -4 14 -1 21 7 20 20 16
561 -4 557 -9 -2 -12 5 -10 20 2 13 9 22 16 20 10 -2 12 21 10 95 -2 72 -6 97
-15 95 -18 -3 -16 35 2 42 16 6 21 56 5 56 -5 0 -14 9 -20 20 -6 11 -7 20 -3
19 21 -4 33 2 33 16 0 13 -10 18 -30 17 -3 0 -5 42 -5 94 0 82 2 95 18 100 20
6 19 39 -1 39 -6 0 -12 4 -11 9 0 5 -5 13 -13 17 -8 5 -9 9 -2 9 15 0 15 140
0 159 -8 11 -8 13 2 7 8 -5 12 -1 12 13 0 25 -10 52 -19 47 -3 -2 -12 2 -19
10 -7 8 -8 14 -2 14 5 0 10 7 10 15 0 20 -42 37 -52 22 -4 -7 -11 0 -17 16 -6
15 -13 27 -16 27 -4 0 -3 -5 1 -12 5 -7 3 -8 -7 -3 -18 12 -159 13 -166 2 -3
-5 -9 -4 -13 3 -6 9 -12 9 -30 0 -12 -7 -20 -8 -17 -2 7 11 -135 8 -154 -4 -7
-4 -10 -3 -6 2 3 5 -37 9 -94 9 -54 0 -99 -4 -99 -9 0 -5 -6 -4 -13 2 -14 12
-35 11 -54 -1 -7 -5 -13 -4 -13 1 0 10 -90 9 -108 -2 -6 -4 -12 -3 -12 2 0 10
-90 9 -108 -2 -6 -4 -12 -3 -12 2 0 10 -90 9 -108 -2 -6 -4 -12 -3 -12 2 0 10
-90 9 -107 -1 -6 -4 -13 -2 -15 4 -3 9 -10 9 -27 -1 -13 -6 -21 -8 -18 -2 7
11 -135 8 -154 -4 -7 -4 -10 -3 -6 2 3 5 -37 9 -94 9 -54 0 -99 -4 -99 -9 0
-5 -6 -4 -13 2 -14 12 -35 11 -54 -1 -7 -5 -13 -4 -13 1 0 10 -90 9 -108 -2
-6 -4 -12 -3 -12 2 0 10 -90 9 -108 -2 -6 -4 -12 -3 -12 2 0 10 -90 9 -108 -2
-6 -4 -12 -3 -12 2 0 10 -90 9 -107 -1 -6 -4 -13 -2 -15 4 -3 9 -10 9 -27 -1
-13 -6 -21 -8 -17 -2 3 6 -27 8 -81 6 -54 -2 -90 1 -94 7 -4 7 -9 4 -13 -6z"/>
<path d="M2510 555 c-13 -16 -8 -28 14 -31 8 -1 11 6 8 22 -5 28 -6 29 -22 9z"/>
</g>
</svg>
